<svg width="29" height="26" viewBox="0 0 29 26" fill="none" xmlns="http://www.w3.org/2000/svg">
<path d="M15.6851 13.9456V20.9456C15.6851 21.2108 15.5797 21.4651 15.3922 21.6527C15.2047 21.8402 14.9503 21.9456 14.6851 21.9456C14.4199 21.9456 14.1655 21.8402 13.978 21.6527C13.7905 21.4651 13.6851 21.2108 13.6851 20.9456V13.9456C13.6851 13.6803 13.7905 13.426 13.978 13.2384C14.1655 13.0509 14.4199 12.9456 14.6851 12.9456C14.9503 12.9456 15.2047 13.0509 15.3922 13.2384C15.5797 13.426 15.6851 13.6803 15.6851 13.9456ZM28.6676 11.2093L26.9351 24.2106C26.8709 24.691 26.6343 25.1319 26.2694 25.451C25.9045 25.7701 25.4361 25.9459 24.9514 25.9456H4.41885C3.93408 25.9459 3.46569 25.7701 3.10079 25.451C2.7359 25.1319 2.49933 24.691 2.4351 24.2106L0.70135 11.2106C0.663569 10.9279 0.686658 10.6405 0.76907 10.3675C0.851483 10.0945 0.991312 9.84234 1.17918 9.62784C1.36705 9.41334 1.59861 9.24148 1.85834 9.12381C2.11807 9.00613 2.39996 8.94536 2.6851 8.94555H7.23135L13.9351 1.2868C14.0289 1.1804 14.1444 1.09518 14.2737 1.0368C14.403 0.978431 14.5432 0.948242 14.6851 0.948242C14.827 0.948242 14.9672 0.978431 15.0965 1.0368C15.2258 1.09518 15.3413 1.1804 15.4351 1.2868L22.1389 8.94555H26.6851C26.9699 8.94574 27.2514 9.00675 27.5107 9.1245C27.7701 9.24226 28.0012 9.41405 28.1888 9.62837C28.3764 9.84269 28.516 10.0946 28.5984 10.3672C28.6807 10.6399 28.7039 10.927 28.6664 11.2093H28.6676ZM9.88885 8.94555H19.4813L14.6851 3.4643L9.88885 8.94555ZM26.6851 10.9456H2.6851L4.41885 23.9456H24.9514L26.6851 10.9456ZM20.2901 13.8456L19.5901 20.8456C19.5763 20.9766 19.5885 21.1091 19.626 21.2354C19.6636 21.3618 19.7257 21.4794 19.8089 21.5816C19.8921 21.6839 19.9946 21.7686 20.1107 21.8311C20.2267 21.8935 20.354 21.9324 20.4851 21.9456C20.5188 21.9474 20.5526 21.9474 20.5864 21.9456C20.834 21.9452 21.0728 21.853 21.2564 21.6868C21.44 21.5205 21.5553 21.292 21.5801 21.0456L22.2801 14.0456C22.3066 13.7817 22.2272 13.518 22.0594 13.3127C21.8915 13.1073 21.649 12.9771 21.3851 12.9506C21.1212 12.924 20.8576 13.0034 20.6522 13.1713C20.4469 13.3391 20.3166 13.5817 20.2901 13.8456ZM9.0801 13.8456C9.05358 13.5817 8.92331 13.3391 8.71796 13.1713C8.51261 13.0034 8.24899 12.924 7.9851 12.9506C7.72121 12.9771 7.47866 13.1073 7.31082 13.3127C7.14297 13.518 7.06358 13.7817 7.0901 14.0456L7.7901 21.0456C7.81497 21.2931 7.93121 21.5224 8.11612 21.6889C8.30103 21.8553 8.54133 21.9468 8.7901 21.9456C8.82383 21.9474 8.85763 21.9474 8.89135 21.9456C9.02202 21.9324 9.14882 21.8937 9.26451 21.8316C9.38021 21.7694 9.48253 21.6851 9.56564 21.5834C9.64875 21.4817 9.71101 21.3647 9.74888 21.2389C9.78675 21.1132 9.79948 20.9812 9.78635 20.8506L9.0801 13.8456Z" fill="#015E1C"/>
</svg>
