<svg width="33" height="33" viewBox="0 0 33 33" fill="none" xmlns="http://www.w3.org/2000/svg">
<path d="M29.8092 8.23657H26.2229L29.5167 4.94407C29.6096 4.85116 29.6833 4.74086 29.7336 4.61947C29.7839 4.49808 29.8097 4.36797 29.8097 4.23657C29.8097 4.10518 29.7839 3.97507 29.7336 3.85368C29.6833 3.73228 29.6096 3.62198 29.5167 3.52907C29.4238 3.43616 29.3135 3.36246 29.1921 3.31218C29.0707 3.2619 28.9406 3.23602 28.8092 3.23602C28.6778 3.23602 28.5477 3.2619 28.4263 3.31218C28.3049 3.36246 28.1946 3.43616 28.1017 3.52907L24.8092 6.82282V3.23657C24.8092 2.97136 24.7038 2.717 24.5163 2.52947C24.3288 2.34193 24.0744 2.23657 23.8092 2.23657C23.544 2.23657 23.2896 2.34193 23.1021 2.52947C22.9145 2.717 22.8092 2.97136 22.8092 3.23657V7.30782C21.2854 6.42818 19.5142 6.07539 17.7697 6.30407C16.0252 6.53275 14.4047 7.33016 13.1592 8.57282C8.14669 13.4966 4.37794 25.2078 4.01044 26.3791C3.83717 26.751 3.78249 27.1672 3.85381 27.5713C3.92514 27.9754 4.11902 28.3477 4.40915 28.6379C4.69929 28.928 5.07164 29.1219 5.47571 29.1932C5.87978 29.2645 6.29601 29.2098 6.66794 29.0366C7.83919 28.6691 19.5654 24.8953 24.4767 19.8853C25.7185 18.6394 26.515 17.019 26.743 15.2748C26.971 13.5305 26.6178 11.7598 25.7379 10.2366H29.8092C30.0744 10.2366 30.3288 10.1312 30.5163 9.94368C30.7038 9.75614 30.8092 9.50179 30.8092 9.23657C30.8092 8.97136 30.7038 8.717 30.5163 8.52947C30.3288 8.34193 30.0744 8.23657 29.8092 8.23657ZM23.0442 18.4866C21.9267 19.6266 20.3879 20.7116 18.6879 21.7028L15.5154 18.5291C15.4225 18.4362 15.3122 18.3625 15.1908 18.3122C15.0694 18.2619 14.9393 18.236 14.8079 18.236C14.6765 18.236 14.5464 18.2619 14.425 18.3122C14.3037 18.3625 14.1934 18.4362 14.1004 18.5291C14.0075 18.622 13.9338 18.7323 13.8835 18.8537C13.8333 18.9751 13.8074 19.1052 13.8074 19.2366C13.8074 19.368 13.8333 19.4981 13.8835 19.6195C13.9338 19.7409 14.0075 19.8512 14.1004 19.9441L16.8617 22.7053C11.7529 25.3541 6.07169 27.1328 5.98669 27.1591C5.92514 27.1791 5.86569 27.205 5.80919 27.2366C5.83939 27.1803 5.86409 27.1213 5.88294 27.0603C5.91919 26.9441 9.38294 15.8628 13.8829 10.7266L18.1042 14.9478C18.2918 15.1355 18.5463 15.2409 18.8117 15.2409C19.0771 15.2409 19.3316 15.1355 19.5192 14.9478C19.7068 14.7602 19.8122 14.5057 19.8122 14.2403C19.8122 13.975 19.7068 13.7205 19.5192 13.5328L15.3317 9.34657C16.5586 8.47366 18.0688 8.09395 19.5626 8.28279C21.0564 8.47164 22.4246 9.21524 23.3957 10.366C24.3667 11.5168 24.8696 12.9906 24.8045 14.4949C24.7394 15.9992 24.111 17.424 23.0442 18.4866Z" fill="#015E1C"/>
</svg>
