<svg width="33" height="33" viewBox="0 0 33 33" fill="none" xmlns="http://www.w3.org/2000/svg">
<path d="M29.1805 12.7551C29.1811 12.6622 29.1684 12.5696 29.143 12.4801L27.3493 6.20513C27.2287 5.78877 26.9767 5.42258 26.6309 5.16124C26.2851 4.89991 25.864 4.75744 25.4305 4.75513H6.93054C6.49709 4.75744 6.07601 4.89991 5.73019 5.16124C5.38437 5.42258 5.13236 5.78877 5.01179 6.20513L3.21929 12.4801C3.19347 12.5695 3.18042 12.6621 3.18054 12.7551V14.7551C3.18054 15.5314 3.36127 16.2969 3.70841 16.9912C4.05555 17.6855 4.55956 18.2894 5.18054 18.7551V26.7551C5.18054 27.2856 5.39126 27.7943 5.76633 28.1693C6.1414 28.5444 6.65011 28.7551 7.18054 28.7551H25.1805C25.711 28.7551 26.2197 28.5444 26.5948 28.1693C26.9698 27.7943 27.1805 27.2856 27.1805 26.7551V18.7551C27.8015 18.2894 28.3055 17.6855 28.6527 16.9912C28.9998 16.2969 29.1805 15.5314 29.1805 14.7551V12.7551ZM6.93054 6.75513H25.4305L26.858 11.7551H5.50679L6.93054 6.75513ZM13.1805 13.7551H19.1805V14.7551C19.1805 15.5508 18.8645 16.3138 18.3019 16.8764C17.7393 17.4391 16.9762 17.7551 16.1805 17.7551C15.3849 17.7551 14.6218 17.4391 14.0592 16.8764C13.4966 16.3138 13.1805 15.5508 13.1805 14.7551V13.7551ZM11.1805 13.7551V14.7551C11.1805 15.5508 10.8645 16.3138 10.3019 16.8764C9.73925 17.4391 8.97619 17.7551 8.18054 17.7551C7.38489 17.7551 6.62183 17.4391 6.05922 16.8764C5.49661 16.3138 5.18054 15.5508 5.18054 14.7551V13.7551H11.1805ZM25.1805 26.7551H7.18054V19.6551C7.50974 19.7215 7.84472 19.755 8.18054 19.7551C8.95677 19.7551 9.72233 19.5744 10.4166 19.2273C11.1109 18.8801 11.7148 18.3761 12.1805 17.7551C12.6463 18.3761 13.2502 18.8801 13.9445 19.2273C14.6388 19.5744 15.4043 19.7551 16.1805 19.7551C16.9568 19.7551 17.7223 19.5744 18.4166 19.2273C19.1109 18.8801 19.7148 18.3761 20.1805 17.7551C20.6463 18.3761 21.2502 18.8801 21.9445 19.2273C22.6388 19.5744 23.4043 19.7551 24.1805 19.7551C24.5164 19.755 24.8513 19.7215 25.1805 19.6551V26.7551ZM24.1805 17.7551C23.3849 17.7551 22.6218 17.4391 22.0592 16.8764C21.4966 16.3138 21.1805 15.5508 21.1805 14.7551V13.7551H27.1805V14.7551C27.1805 15.5508 26.8645 16.3138 26.3019 16.8764C25.7393 17.4391 24.9762 17.7551 24.1805 17.7551Z" fill="#015E1C"/>
</svg>
